<svg width="99" height="45" viewBox="0 0 99 45" fill="none" xmlns="http://www.w3.org/2000/svg">
<rect width="99" height="45" fill="#1E1E1E"/>
<rect width="1728" height="993" transform="translate(-120 -20)" fill="#FCFAF5"/>
<mask id="path-1-inside-1_0_1" fill="white">
<path d="M-120 -20H1608V65H-120V-20Z"/>
</mask>
<path d="M-120 -20H1608V65H-120V-20Z" fill="white"/>
<path d="M1608 64H-120V66H1608V64Z" fill="#E6E3D2" mask="url(#path-1-inside-1_0_1)"/>
<path d="M99 0H0V45H99V0Z" fill="#1E231E"/>
<path d="M26.1653 13.524C25.2979 13.524 24.5711 13.2544 23.985 12.7152C23.4224 12.1525 23.1411 11.461 23.1411 10.6405C23.1411 9.81994 23.4224 9.14009 23.985 8.60089C24.5711 8.03826 25.2979 7.75694 26.1653 7.75694C27.0327 7.75694 27.7477 8.03826 28.3103 8.60089C28.8964 9.14009 29.1894 9.81994 29.1894 10.6405C29.1894 11.461 28.8964 12.1525 28.3103 12.7152C27.7477 13.2544 27.0327 13.524 26.1653 13.524ZM28.5916 15.8449V35.3262H23.6686V15.8449H28.5916ZM57.974 10.7811L48.9718 35.3262H42.9938L33.9916 10.7811H39.2663L46.018 30.2976L52.7344 10.7811H57.974ZM78.5517 10.7811V14.7547H68.3187V21.0492H76.1605V24.9525H68.3187V35.3262H63.3957V10.7811H78.5517Z" fill="white"/>
<circle cx="26.0041" cy="9.15253" r="4.7619" fill="#F48265"/>
<line x1="21.9766" y1="9.18711" x2="-0.00145912" y2="9.18711" stroke="#F48265" stroke-width="0.8"/>
</svg>
